# File created by Blade
# Date/Time:  Wed Apr 08 17:17:01 2015
# Frame Rate: 120.000 fps
#------------------------------------------------------
:FULLY-SPECIFIED
:DEGREES
838
root 5.042503 36.208047 5.970240 116.353302 -79.379974 -122.349455
Spine 14.740711 3.443464 6.899225
Head 12.986844 12.875195 5.362295
LeftShoulder -7.142988 16.880962 14.109084
LeftArm 17.078958 28.170366 -74.422583
LeftForeArm 28.536681 -0.000000 20.486364
LeftHand -8.758924 -0.000000 -20.314466
LeftHandThumb1 -26.253704 0.000000 33.147579
RightShoulder -30.519280 -48.797928 21.939944
RightArm 56.535024 -13.177938 58.053570
RightForeArm 39.105214 -0.000000 14.972887
RightHand -0.648160 -0.000000 9.221705
RightHandThumb1 -24.326973 -0.000000 -32.862282
LeftUpLeg 8.797548 29.328235 4.528872
LeftLeg 11.892753 -0.000000 -0.000000
LeftFoot -19.691593 5.598113 -8.681737
LeftToeBase 9.807723 -0.000000 -0.000000
RightUpLeg -51.678033 -18.696993 -25.077471
RightLeg 153.942847 -0.000000 -0.000000
RightFoot 33.957418 10.069028 10.210543
RightToeBase -1.135647 -0.000000 0.000000
839
root 5.038776 36.214665 5.971540 117.725069 -79.068510 -123.686767
Spine 14.765294 3.468701 6.971918
Head 12.952823 12.856382 5.348301
LeftShoulder -7.151882 16.912802 14.091151
LeftArm 17.138274 28.075999 -74.413805
LeftForeArm 28.598814 -0.000000 20.544793
LeftHand -8.727150 -0.000000 -20.367921
LeftHandThumb1 -26.253704 0.000000 33.147579
RightShoulder -30.534779 -48.766431 21.914457
RightArm 56.449147 -13.120517 58.157666
RightForeArm 39.180450 -0.000000 14.951075
RightHand -0.572023 -0.000000 9.243477
RightHandThumb1 -24.326973 -0.000000 -32.862282
LeftUpLeg 8.818819 29.456500 4.616379
LeftLeg 11.811723 -0.000000 -0.000000
LeftFoot -19.679075 5.897903 -8.647951
LeftToeBase 9.615589 -0.000000 -0.000000
RightUpLeg -51.647626 -18.974478 -25.201244
RightLeg 153.894360 -0.000000 -0.000000
RightFoot 33.964324 10.165199 10.144931
RightToeBase -1.166677 -0.000000 0.000000
840
root 5.032234 36.220323 5.973201 119.063210 -78.760060 -125.001865
Spine 14.801884 3.492917 7.026240
Head 12.895295 12.847339 5.326194
LeftShoulder -7.204469 16.884601 14.084663
LeftArm 17.182371 28.058939 -74.416938
LeftForeArm 28.515612 -0.000000 20.538176
LeftHand -8.757034 -0.000000 -20.322487
LeftHandThumb1 -26.253704 0.000000 33.147579
RightShoulder -30.604390 -48.757178 21.945109
RightArm 56.410649 -13.042802 58.232041
RightForeArm 39.249108 -0.000000 14.962219
RightHand -0.627643 -0.000000 9.295610
RightHandThumb1 -24.326973 -0.000000 -32.862282
LeftUpLeg 8.879391 29.586280 4.701543
LeftLeg 11.694083 -0.000000 -0.000000
LeftFoot -19.682510 6.180880 -8.630685
LeftToeBase 9.578776 -0.000000 -0.000000
RightUpLeg -51.595424 -19.234238 -25.358701
RightLeg 153.840009 -0.000000 -0.000000
RightFoot 33.991398 10.257746 10.041828
RightToeBase -1.388196 -0.000000 0.000000
841
root 5.025383 36.226302 5.972679 120.352210 -78.441116 -126.272933
Spine 14.847235 3.505169 7.079896
Head 12.822546 12.847407 5.296075
LeftShoulder -7.251776 16.842700 14.066733
LeftArm 17.162415 28.009819 -74.432254
LeftForeArm 28.446106 -0.000000 20.571279
LeftHand -8.751145 -0.000000 -20.311685
LeftHandThumb1 -26.253704 0.000000 33.147579
RightShoulder -30.665204 -48.753753 22.001950
RightArm 56.385938 -12.964050 58.251981
RightForeArm 39.274090 0.000000 14.936337
RightHand -0.404557 -0.000000 9.426878
RightHandThumb1 -24.326973 -0.000000 -32.862282
LeftUpLeg 8.963338 29.760099 4.809250
LeftLeg 11.562430 -0.000000 -0.000000
LeftFoot -19.657029 6.432123 -8.591933
LeftToeBase 9.409189 -0.000000 -0.000000
RightUpLeg -51.521545 -19.422627 -25.573544
RightLeg 153.794525 -0.000000 -0.000000
RightFoot 33.904447 10.275372 10.298216
RightToeBase -0.699404 -0.000000 0.000000
842
root 5.020034 36.232847 5.968795 121.622134 -78.110523 -127.511034
Spine 14.847201 3.538291 7.113151
Head 12.850272 12.854220 5.326958
LeftShoulder -7.193341 16.893386 14.092149
LeftArm 17.148760 27.838913 -74.495405
LeftForeArm 28.425131 0.000000 20.594270
LeftHand -8.797230 -0.000000 -20.241934
LeftHandThumb1 -26.253704 0.000000 33.147579
RightShoulder -30.664536 -48.821649 22.029517
RightArm 56.354033 -12.839607 58.335435
RightForeArm 39.221365 -0.000000 14.924551
RightHand -0.437681 -0.000000 9.297484
RightHandThumb1 -24.326973 -0.000000 -32.862282
LeftUpLeg 9.027741 29.995031 4.927116
LeftLeg 11.433603 -0.000000 -0.000000
LeftFoot -19.625085 6.658224 -8.535192
LeftToeBase 9.310822 -0.000000 -0.000000
RightUpLeg -51.491327 -19.641183 -25.689655
RightLeg 153.730828 -0.000000 -0.000000
RightFoot 33.948550 10.363101 10.175738
RightToeBase -0.781503 -0.000000 0.000000
843
root 5.017279 36.237746 5.964055 122.983881 -77.756985 -128.819132
Spine 14.856928 3.619452 7.145001
Head 12.778859 12.848007 5.353991
LeftShoulder -7.195964 16.879144 14.107455
LeftArm 17.142057 27.788881 -74.507255
LeftForeArm 28.378315 -0.000000 20.603863
LeftHand -8.758631 -0.000000 -20.227665
LeftHandThumb1 -26.253704 0.000000 33.147579
RightShoulder -30.739634 -48.814951 22.111334
RightArm 56.353643 -12.776684 58.320317
RightForeArm 39.374923 0.000000 14.897549
RightHand -0.398526 0.000000 9.158004
RightHandThumb1 -24.326973 -0.000000 -32.862282
LeftUpLeg 9.076255 30.290192 5.051053
LeftLeg 11.317077 -0.000000 -0.000000
LeftFoot -19.614945 6.813262 -8.503603
LeftToeBase 9.200649 -0.000000 -0.000000
RightUpLeg -51.508545 -19.806690 -25.835761
RightLeg 153.679837 -0.000000 -0.000000
RightFoot 33.926351 10.354172 10.388846
RightToeBase -0.208027 -0.000000 0.000000
844
root 5.014354 36.241353 5.960946 124.160918 -77.419083 -129.953692
Spine 14.878301 3.635849 7.169153
Head 12.699082 12.864095 5.349281
LeftShoulder -7.204217 16.842980 14.106157
LeftArm 17.098718 27.715092 -74.527813
LeftForeArm 28.199263 -0.000000 20.636691
LeftHand -8.860769 0.000000 -20.274091
LeftHandThumb1 -26.253704 0.000000 33.147579
RightShoulder -30.680343 -48.792975 22.052786
RightArm 56.243647 -12.709027 58.444996
RightForeArm 39.418592 -0.000000 14.916271
RightHand -0.301199 -0.000000 9.333738
RightHandThumb1 -24.326973 -0.000000 -32.862282
LeftUpLeg 9.141042 30.543403 5.171164
LeftLeg 11.186339 -0.000000 -0.000000
LeftFoot -19.595967 6.961110 -8.482439
LeftToeBase 9.073329 -0.000000 -0.000000
RightUpLeg -51.499534 -20.019306 -25.956416
RightLeg 153.623088 -0.000000 -0.000000
RightFoot 33.971151 10.434272 10.246127
RightToeBase -0.451812 -0.000000 0.000000
845
root 5.012964 36.245126 5.956669 125.373223 -77.061939 -131.107155
Spine 14.876461 3.677135 7.185982
Head 12.646516 12.862961 5.369323
LeftShoulder -7.216607 16.875139 14.093123
LeftArm 17.137653 27.744517 -74.469714
LeftForeArm 28.275744 -0.000000 20.663889
LeftHand -8.899216 -0.000000 -20.173262
LeftHandThumb1 -26.253704 0.000000 33.147579
RightShoulder -30.687305 -48.801475 22.073595
RightArm 56.235720 -12.641843 58.454128
RightForeArm 39.472220 0.000000 14.871289
RightHand -0.293653 -0.000000 9.128287
RightHandThumb1 -24.326973 -0.000000 -32.862282
LeftUpLeg 9.182305 30.787321 5.280402
LeftLeg 11.077033 -0.000000 -0.000000
LeftFoot -19.614584 7.084273 -8.541175
LeftToeBase 9.079062 -0.000000 -0.000000
RightUpLeg -51.521711 -20.200089 -26.051912
RightLeg 153.575470 -0.000000 -0.000000
RightFoot 33.963720 10.535926 10.104190
RightToeBase -0.672879 -0.000000 0.000000
846
root 5.011700 36.248135 5.952561 126.447425 -76.723004 -132.129559
Spine 14.885106 3.696410 7.191725
Head 12.590564 12.879831 5.402746
LeftShoulder -7.215095 16.863534 14.111844
LeftArm 17.126979 27.833861 -74.444166
LeftForeArm 28.411585 -0.000000 20.718606
LeftHand -8.993001 -0.000000 -20.064165
LeftHandThumb1 -26.253704 0.000000 33.147579
RightShoulder -30.665290 -48.791103 22.052794
RightArm 56.196584 -12.629776 58.469599
RightForeArm 39.738632 0.000000 14.848548
RightHand -0.235772 -0.000000 9.339731
RightHandThumb1 -24.326973 -0.000000 -32.862282
LeftUpLeg 9.224006 30.989105 5.371379
LeftLeg 10.958827 -0.000000 -0.000000
LeftFoot -19.664906 7.273559 -8.560282
LeftToeBase 9.175730 -0.000000 -0.000000
RightUpLeg -51.512310 -20.398295 -26.164703
RightLeg 153.521592 -0.000000 -0.000000
RightFoot 33.974187 10.598161 9.968706
RightToeBase -0.868901 -0.000000 0.000000
